<svg width="22" height="23" viewBox="0 0 22 23" fill="none" xmlns="http://www.w3.org/2000/svg">
<ellipse cx="10.912" cy="11.5901" rx="10.4892" ry="10.7742" fill="#F8FAFA"/>
<path d="M9.3077 8.64795H12.5163C12.7571 8.64795 12.9714 8.80437 13.0511 9.03718L13.5132 10.394H8.31077L8.77293 9.03718C8.85261 8.80437 9.06687 8.64795 9.3077 8.64795ZM7.7034 8.65341L7.0801 10.4813C6.66929 10.656 6.37888 11.0725 6.37888 11.5581V13.0132C6.37888 13.4443 6.60731 13.8208 6.94552 14.0208V15.0503C6.94552 15.3722 7.19874 15.6323 7.51216 15.6323H8.0788C8.39222 15.6323 8.64544 15.3722 8.64544 15.0503V14.1772H13.1785V15.0503C13.1785 15.3722 13.4318 15.6323 13.7452 15.6323H14.3118C14.6252 15.6323 14.8785 15.3722 14.8785 15.0503V14.0208C15.2167 13.8189 15.4451 13.4443 15.4451 13.0132V11.5581C15.4451 11.0725 15.1547 10.656 14.7439 10.4813L14.1206 8.65341C13.8815 7.95315 13.2387 7.48389 12.5163 7.48389H9.3077C8.58523 7.48389 7.94245 7.95315 7.7034 8.65341ZM10.062 11.8491H11.7619C11.9178 11.8491 12.0453 11.9801 12.0453 12.1401V12.7222C12.0453 12.8822 11.9178 13.0132 11.7619 13.0132H10.062C9.90621 13.0132 9.77871 12.8822 9.77871 12.7222V12.1401C9.77871 11.9801 9.90621 11.8491 10.062 11.8491ZM7.22884 11.9946C7.22884 11.7527 7.41831 11.5581 7.65382 11.5581H8.22046C8.45597 11.5581 8.64544 11.7527 8.64544 11.9946C8.64544 12.2365 8.45597 12.4312 8.22046 12.4312H7.65382C7.41831 12.4312 7.22884 12.2365 7.22884 11.9946ZM13.6035 11.5581H14.1702C14.4057 11.5581 14.5951 11.7527 14.5951 11.9946C14.5951 12.2365 14.4057 12.4312 14.1702 12.4312H13.6035C13.368 12.4312 13.1785 12.2365 13.1785 11.9946C13.1785 11.7527 13.368 11.5581 13.6035 11.5581Z" fill="#FF5017"/>
</svg>
