<svg width="315" height="312" viewBox="0 0 315 312" fill="none" xmlns="http://www.w3.org/2000/svg">
<path d="M190.877 311.102L190.596 309.807C261.531 294.414 313.021 230.426 313.021 157.668C313.025 148.329 312.19 138.964 310.543 129.839L311.85 129.607C313.506 138.814 314.35 148.257 314.346 157.672C314.346 193.74 301.825 228.968 279.085 256.861C256.662 284.358 225.34 303.621 190.877 311.102ZM87.3127 298.121C33.84 271.304 0.620972 217.486 0.620972 157.668C0.620972 144.55 2.24107 131.519 5.43137 118.933L6.71566 119.26C3.55259 131.742 1.9461 144.659 1.9461 157.668C1.9461 216.982 34.8838 270.346 87.9072 296.935L87.3127 298.121ZM259.217 39.902C230.99 15.4523 194.857 1.9897 157.486 1.9897C123.522 1.99424 91.2518 12.7543 64.1728 33.1071L63.3741 32.0443C90.689 11.5234 123.232 0.672511 157.486 0.667969C195.179 0.667969 231.616 14.2441 260.083 38.8982L259.217 39.902Z" fill="#F8FAFA"/>
</svg>
