<svg width="273" height="274" viewBox="0 0 273 274" fill="none" xmlns="http://www.w3.org/2000/svg">
<path d="M136.486 273.105L134.561 273.092L134.634 267.787L136.481 267.8C208.728 267.8 267.506 208.972 267.506 136.663C267.506 66.1254 212.39 8.57341 142.027 5.6438L142.249 0.343262C215.458 3.39096 272.806 63.2685 272.806 136.663C272.806 211.897 211.651 273.105 136.486 273.105ZM38.072 231.083C13.6206 205.561 0.160522 172.032 0.160522 136.668C0.160522 98.9597 15.9759 62.5781 43.5449 36.8475L47.1573 40.7264C20.6547 65.4532 5.4565 100.427 5.4565 136.668C5.45196 170.66 18.3901 202.881 41.8885 227.413L38.072 231.083Z" fill="#F8FAFA"/>
</svg>
