<svg width="94" height="94" viewBox="0 0 94 94" fill="none" xmlns="http://www.w3.org/2000/svg">
<path d="M83.4421 56.4754C88.8439 36.2205 76.8173 15.4179 56.5798 10.0114C36.3423 4.60493 15.5575 16.6419 10.1557 36.8968C4.75386 57.1517 16.7805 77.9543 37.018 83.3608C57.2555 88.7673 78.0403 76.7303 83.4421 56.4754Z" fill="#F8FAFA"/>
<path d="M47.077 32.7143L39.158 39.128C37.8409 40.1915 37.5873 42.1058 38.5854 43.472C39.6407 44.9282 41.6941 45.2145 43.1094 44.1101L51.2329 37.7946C51.8055 37.3528 52.6236 37.451 53.0735 38.0236C53.5235 38.5963 53.4171 39.4144 52.8445 39.8643L51.1347 41.1896L62.506 51.661V36.2157H62.4487L62.1296 36.0112L56.1904 32.2071C54.9388 31.4054 53.4744 30.98 51.9855 30.98C50.2021 30.98 48.4678 31.5935 47.077 32.7143ZM48.9422 42.8912L44.7128 46.1798C42.1358 48.1923 38.3972 47.6687 36.4666 45.0182C34.6504 42.523 35.1086 39.038 37.5055 37.0992L44.3119 31.5935C43.363 31.1927 42.3404 30.9882 41.3014 30.9882C39.7634 30.98 38.2663 31.4381 36.982 32.2889L31.0918 36.2157V54.5406H33.3988L40.876 61.3634C42.4794 62.8277 44.9582 62.7132 46.4226 61.1098C46.8725 60.6107 47.1752 60.0299 47.3306 59.4245L48.7214 60.7007C50.3166 62.1651 52.8036 62.0587 54.2679 60.4635C54.6361 60.0626 54.906 59.5963 55.0778 59.1136C56.6649 60.1771 58.8246 59.9563 60.1581 58.5001C61.6224 56.9048 61.5161 54.4179 59.9208 52.9535L48.9422 42.8912ZM28.474 36.2157H20.6204V54.5406C20.6204 55.9886 21.7903 57.1584 23.2383 57.1584H25.8561C27.3041 57.1584 28.474 55.9886 28.474 54.5406V36.2157ZM24.5472 54.5406C23.8273 54.5406 23.2383 53.9516 23.2383 53.2317C23.2383 52.5118 23.8273 51.9227 24.5472 51.9227C25.2671 51.9227 25.8561 52.5118 25.8561 53.2317C25.8561 53.9516 25.2671 54.5406 24.5472 54.5406ZM65.1238 36.2157V54.5406C65.1238 55.9886 66.2937 57.1584 67.7417 57.1584H70.3595C71.8075 57.1584 72.9773 55.9886 72.9773 54.5406V36.2157H65.1238ZM70.3595 53.2317C70.3595 53.9516 69.7705 54.5406 69.0506 54.5406C68.3307 54.5406 67.7417 53.9516 67.7417 53.2317C67.7417 52.5118 68.3307 51.9227 69.0506 51.9227C69.7705 51.9227 70.3595 52.5118 70.3595 53.2317Z" fill="#FF5017"/>
</svg>
