<svg width="43" height="39" viewBox="0 0 43 39" fill="none" xmlns="http://www.w3.org/2000/svg">
<path d="M26.5282 18.8578C26.5282 19.224 26.2274 19.5109 25.8865 19.5109H25.2448L25.2588 22.7706C25.2588 22.8256 25.2548 22.8805 25.2488 22.9355V23.2631C25.2488 23.7127 24.8898 24.077 24.4467 24.077H24.1258C24.1038 24.077 24.0817 24.077 24.0597 24.0749C24.0316 24.077 24.0035 24.077 23.9754 24.077H23.3237H22.8425C22.3993 24.077 22.0403 23.7127 22.0403 23.2631V22.7747V21.4725C22.0403 21.1123 21.7536 20.8213 21.3987 20.8213H20.1153C19.7603 20.8213 19.4736 21.1123 19.4736 21.4725V22.7747V23.2631C19.4736 23.7127 19.1146 24.077 18.6715 24.077H18.1902H17.5505C17.5204 24.077 17.4904 24.0749 17.4603 24.0729C17.4362 24.0749 17.4122 24.077 17.3881 24.077H17.0672C16.6241 24.077 16.2651 23.7127 16.2651 23.2631V20.9841C16.2651 20.9658 16.2651 20.9455 16.2671 20.9271V19.5109H15.6234C15.2625 19.5109 14.9818 19.2261 14.9818 18.8578C14.9818 18.6746 15.0419 18.5119 15.1823 18.3694L20.3238 13.8217C20.4642 13.6793 20.6246 13.6589 20.765 13.6589C20.9054 13.6589 21.0658 13.6996 21.1861 13.8014L26.3076 18.3694C26.468 18.5119 26.5482 18.6746 26.5282 18.8578Z" fill="#FF5017"/>
<rect x="4.19992" y="1.85767" width="35.1567" height="35.1567" rx="4" stroke="#FF5017" stroke-width="2"/>
<circle cx="3.96183" cy="11.5521" r="2.61949" fill="white" stroke="#FF5017"/>
<circle cx="39.07" cy="27.1964" r="2.61949" fill="white" stroke="#FF5017"/>
</svg>
