<svg width="108" height="108" viewBox="0 0 108 108" fill="none" xmlns="http://www.w3.org/2000/svg">
<path d="M80.7496 80.5572C95.5601 65.734 95.5601 41.7007 80.7496 26.8774C65.9391 12.0542 41.9265 12.0542 27.116 26.8775C12.3054 41.7007 12.3055 65.7339 27.116 80.5572C41.9265 95.3804 65.9391 95.3805 80.7496 80.5572Z" fill="#F8FAFA"/>
<path d="M43.013 47.8272C40.2706 47.8272 38.0495 45.6309 38.0495 42.9192C38.0495 40.2076 40.2706 38.0112 43.013 38.0112C45.7554 38.0112 47.9766 40.2076 47.9766 42.9192C47.9766 45.6309 45.7554 47.8272 43.013 47.8272ZM65.8453 47.8272C63.103 47.8272 60.8818 45.6309 60.8818 42.9192C60.8818 40.2076 63.103 38.0112 65.8453 38.0112C68.5877 38.0112 70.8089 40.2076 70.8089 42.9192C70.8089 45.6309 68.5877 47.8272 65.8453 47.8272ZM34.0786 56.3364C34.0786 52.7229 37.0443 49.7904 40.6988 49.7904H43.348C44.3346 49.7904 45.2714 50.0051 46.1152 50.3855C46.0346 50.8272 45.9973 51.2873 45.9973 51.7536C45.9973 54.0972 47.0397 56.2015 48.6839 57.6432C48.6715 57.6432 48.659 57.6432 48.6404 57.6432H35.4002C34.6742 57.6432 34.0786 57.0542 34.0786 56.3364ZM59.2252 57.6432C59.2128 57.6432 59.2004 57.6432 59.1818 57.6432C60.8322 56.2015 61.8683 54.0972 61.8683 51.7536C61.8683 51.2873 61.8249 50.8334 61.7504 50.3855C62.5942 49.999 63.5311 49.7904 64.5176 49.7904H67.1669C70.8213 49.7904 73.787 52.7229 73.787 56.3364C73.787 57.0604 73.1914 57.6432 72.4655 57.6432H59.2252ZM59.8891 51.7536C59.8891 55.0051 57.2212 57.6432 53.9328 57.6432C50.6445 57.6432 47.9766 55.0051 47.9766 51.7536C47.9766 48.5021 50.6445 45.864 53.9328 45.864C57.2212 45.864 59.8891 48.5021 59.8891 51.7536ZM42.0203 67.7843C42.0203 63.269 45.7243 59.6064 50.2908 59.6064H57.5748C62.1413 59.6064 65.8453 63.269 65.8453 67.7843C65.8453 68.6862 65.107 69.4224 64.1888 69.4224H43.6769C42.7648 69.4224 42.0203 68.6923 42.0203 67.7843Z" fill="#FF5017"/>
</svg>
