<svg width="30" height="26" viewBox="0 0 30 26" fill="none" xmlns="http://www.w3.org/2000/svg">
<path d="M14.3897 24.1469C12.6931 24.4248 10.9559 24.3238 9.3029 23.8512C7.64987 23.3786 6.12188 22.5461 4.82849 21.4134C3.5351 20.2807 2.50836 18.8759 1.82187 17.2996C1.13538 15.7233 0.806157 14.0147 0.857806 12.2962C0.909455 10.5777 1.3407 8.89196 2.12061 7.35977C2.90052 5.82758 4.00979 4.48694 5.36887 3.43396C6.72795 2.38098 8.30317 1.64175 9.9816 1.26928C11.66 0.896805 13.4001 0.900316 15.077 1.27956" stroke="#F8FAFA"/>
<path d="M29.0026 13.3496C29.1979 13.1544 29.1979 12.8378 29.0026 12.6425L25.8206 9.46056C25.6254 9.2653 25.3088 9.2653 25.1135 9.46056C24.9183 9.65582 24.9183 9.97241 25.1135 10.1677L27.9419 12.9961L25.1135 15.8245C24.9183 16.0198 24.9183 16.3364 25.1135 16.5316C25.3088 16.7269 25.6254 16.7269 25.8206 16.5316L29.0026 13.3496ZM12.5557 13.4961L28.6491 13.4961L28.6491 12.4961L12.5557 12.4961L12.5557 13.4961Z" fill="#F8FAFA"/>
</svg>
