<svg width="30" height="26" viewBox="0 0 30 26" fill="none" xmlns="http://www.w3.org/2000/svg">
<path d="M15.0872 24.1323C13.4018 24.4083 11.6762 24.308 10.0341 23.8385C8.39201 23.369 6.87415 22.5421 5.58933 21.4169C4.30451 20.2917 3.28457 18.8961 2.60263 17.3303C1.92069 15.7645 1.59365 14.0672 1.64496 12.3601C1.69627 10.653 2.12465 8.97842 2.89939 7.45638C3.67414 5.93435 4.77605 4.60259 6.12612 3.55659C7.47619 2.51059 9.04098 1.77626 10.7083 1.40626C12.3756 1.03625 14.1041 1.03974 15.7699 1.41647" stroke="#F8FAFA"/>
<path d="M29.61 13.4092C29.8052 13.214 29.8052 12.8974 29.61 12.7021L26.428 9.52016C26.2327 9.3249 25.9161 9.3249 25.7209 9.52016C25.5256 9.71542 25.5256 10.032 25.7209 10.2273L28.5493 13.0557L25.7209 15.8841C25.5256 16.0794 25.5256 16.396 25.7209 16.5912C25.9161 16.7865 26.2327 16.7865 26.428 16.5912L29.61 13.4092ZM13.2654 13.5557L29.2564 13.5557L29.2564 12.5557L13.2654 12.5557L13.2654 13.5557Z" fill="#F8FAFA"/>
</svg>
