<svg width="93" height="92" viewBox="0 0 93 92" fill="none" xmlns="http://www.w3.org/2000/svg">
<path d="M83.4324 54.4805C88.2666 34.0831 75.6644 13.6254 55.2844 8.78704C34.9045 3.94868 14.4645 16.5618 9.63025 36.9592C4.79604 57.3567 17.3983 77.8144 37.7782 82.6527C58.1581 87.4911 78.5982 74.8779 83.4324 54.4805Z" fill="#F8FAFA"/>
<path d="M26.3372 35.6235V57.3463C26.3372 58.6084 27.0454 59.8004 28.2304 60.2422C34.3307 62.521 40.4311 60.9644 46.5314 59.4078C52.1269 57.9844 57.7223 56.5539 63.3108 58.0825C64.9235 58.5243 66.7256 57.4164 66.7256 55.7406V34.0248C66.7256 32.7627 66.0174 31.5707 64.8324 31.1289C58.732 28.8501 52.6317 30.4067 46.5314 31.9633C40.9359 33.3867 35.3405 34.8101 29.752 33.2816C28.1323 32.8398 26.3372 33.9477 26.3372 35.6235ZM46.5314 52.4169C43.4321 52.4169 40.9219 49.4018 40.9219 45.6855C40.9219 41.9693 43.4321 38.9542 46.5314 38.9542C49.6306 38.9542 52.1409 41.9693 52.1409 45.6855C52.1409 49.4018 49.6306 52.4169 46.5314 52.4169ZM30.8248 52.4169C33.3 52.4169 35.3124 54.4293 35.3124 56.9045H30.8248V52.4169ZM35.3124 37.8323C35.3124 40.3074 33.3 42.3199 30.8248 42.3199V37.8323H35.3124ZM62.238 49.0512V53.5388H57.7504C57.7504 51.0636 59.7628 49.0512 62.238 49.0512ZM57.7504 34.4666H62.238V38.9542C59.7628 38.9542 57.7504 36.9418 57.7504 34.4666Z" fill="#FF5017"/>
</svg>
