<svg width="102" height="102" viewBox="0 0 102 102" fill="none" xmlns="http://www.w3.org/2000/svg">
<path d="M66.7789 85.122C85.7701 76.2817 94.0053 53.7065 85.1726 34.699C76.3399 15.6914 53.7841 7.44921 34.7929 16.2895C15.8017 25.1298 7.56656 47.7049 16.3993 66.7125C25.2319 85.7201 47.7877 93.9623 66.7789 85.122Z" fill="#F8FAFA"/>
<path d="M68.2831 50.6753C68.2831 51.7796 67.3713 52.6446 66.3378 52.6446H64.3925L64.4351 62.4728C64.4351 62.6385 64.4229 62.8041 64.4047 62.9698V63.9575C64.4047 65.3133 63.3165 66.4115 61.973 66.4115H61.0004C60.9335 66.4115 60.8666 66.4115 60.7997 66.4054C60.7146 66.4115 60.6295 66.4115 60.5444 66.4115H58.5687H57.1097C55.7662 66.4115 54.6781 65.3133 54.6781 63.9575V62.4851V58.5587C54.6781 57.4728 53.8088 56.5955 52.7328 56.5955H48.8421C47.7661 56.5955 46.8968 57.4728 46.8968 58.5587V62.4851V63.9575C46.8968 65.3133 45.8087 66.4115 44.4652 66.4115H43.0062H41.0669C40.9758 66.4115 40.8846 66.4054 40.7934 66.3992C40.7204 66.4054 40.6475 66.4115 40.5745 66.4115H39.6019C38.2584 66.4115 37.1702 65.3133 37.1702 63.9575V57.0863C37.1702 57.0311 37.1702 56.9698 37.1763 56.9145V52.6446H35.2249C34.1307 52.6446 33.2796 51.7857 33.2796 50.6753C33.2796 50.1231 33.462 49.6323 33.8875 49.2029L49.4744 35.4912C49.8999 35.0617 50.3862 35.0004 50.8118 35.0004C51.2373 35.0004 51.7236 35.1231 52.0884 35.4298L67.6144 49.2029C68.1008 49.6323 68.3439 50.1231 68.2831 50.6753Z" fill="#FF5017"/>
</svg>
