<svg width="22" height="21" viewBox="0 0 22 21" fill="none" xmlns="http://www.w3.org/2000/svg">
<path d="M17.6544 12.7357C17.3818 12.9999 17.2565 13.382 17.3186 13.7567L18.2544 18.9353C18.3333 19.3742 18.148 19.8184 17.7807 20.0721C17.4207 20.3352 16.9418 20.3668 16.5492 20.1563L11.8874 17.7248C11.7253 17.6385 11.5453 17.5922 11.3611 17.587H11.0759C10.9769 17.6017 10.8801 17.6333 10.7917 17.6817L6.12885 20.1247C5.89834 20.2405 5.6373 20.2815 5.38153 20.2405C4.75841 20.1226 4.34265 19.5289 4.44475 18.9027L5.38153 13.7241C5.44363 13.3462 5.31838 12.962 5.04576 12.6936L1.24497 9.00964C0.927092 8.70124 0.816573 8.23811 0.961827 7.82025C1.10287 7.40343 1.46285 7.09924 1.89755 7.03083L7.12878 6.27193C7.52665 6.23088 7.8761 5.98879 8.05504 5.63092L10.3601 0.904919C10.4149 0.799663 10.4854 0.702827 10.5707 0.620728L10.6654 0.547048C10.7149 0.492315 10.7717 0.447055 10.8349 0.410215L10.9496 0.368113L11.1285 0.294434H11.5716C11.9674 0.335483 12.3158 0.57231 12.4979 0.92597L14.8335 5.63092C15.0019 5.97511 15.3293 6.21404 15.7072 6.27193L20.9384 7.03083C21.3805 7.09398 21.7499 7.39922 21.8962 7.82025C22.0341 8.24232 21.9152 8.70545 21.591 9.00964L17.6544 12.7357Z" fill="#010F58"/>
</svg>
