<svg width="22" height="21" viewBox="0 0 22 21" fill="none" xmlns="http://www.w3.org/2000/svg">
<path opacity="0.4" d="M12.4528 0.940343L14.7965 5.65011C14.9691 5.99133 15.2987 6.2283 15.6788 6.28095L20.943 7.04766C21.2505 7.09084 21.5295 7.25303 21.718 7.50052C21.9043 7.74486 21.9843 8.05449 21.9391 8.35885C21.9022 8.61161 21.7832 8.84542 21.6011 9.02445L17.7866 12.7221C17.5076 12.9801 17.3812 13.3624 17.4486 13.7363L18.3878 18.9348C18.4878 19.5624 18.0719 20.1543 17.4486 20.2733C17.1917 20.3144 16.9285 20.2712 16.6969 20.1533L12.0011 17.7068C11.6526 17.5309 11.241 17.5309 10.8925 17.7068L6.19673 20.1533C5.61976 20.4597 4.90487 20.2512 4.58375 19.6825C4.46478 19.4561 4.42266 19.198 4.46162 18.9463L5.40077 13.7469C5.46815 13.374 5.34075 12.9896 5.0628 12.7316L1.2483 9.03604C0.794513 8.59792 0.780826 7.8765 1.21776 7.42259C1.22724 7.41311 1.23777 7.40258 1.2483 7.39205C1.42939 7.20774 1.66733 7.09084 1.92423 7.0603L7.18852 6.29254C7.56755 6.23883 7.89709 6.00397 8.07081 5.66064L10.3302 0.940343C10.5313 0.535927 10.9483 0.28422 11.401 0.294752H11.5421C11.9348 0.342144 12.277 0.585426 12.4528 0.940343Z" fill="#010F58"/>
<path d="M11.4167 17.5756C11.2128 17.5819 11.0142 17.6367 10.8355 17.7347L6.16272 20.1756C5.59097 20.4485 4.90677 20.2367 4.58621 19.69C4.46744 19.4666 4.42435 19.2106 4.46429 18.9599L5.39759 13.7714C5.46065 13.3943 5.33453 13.0108 5.06021 12.7453L1.244 9.05072C0.791016 8.6072 0.782608 7.87924 1.22613 7.42518C1.23244 7.41886 1.23769 7.41359 1.244 7.40833C1.42477 7.22923 1.6581 7.11124 1.90929 7.07437L7.17799 6.299C7.55951 6.25053 7.89058 6.01244 8.05874 5.6669L10.3489 0.88719C10.5664 0.50161 10.9837 0.271948 11.4251 0.296179C11.4167 0.609067 11.4167 17.3628 11.4167 17.5756Z" fill="#010F58"/>
</svg>
