<svg width="23" height="23" viewBox="0 0 23 23" fill="none" xmlns="http://www.w3.org/2000/svg">
<circle cx="11.5053" cy="11.5901" r="10.7742" fill="#F8FAFA"/>
<path d="M8.9791 8.76883C8.9791 8.65357 9.07225 8.55884 9.18909 8.55884C9.24435 8.55884 9.29803 8.58094 9.33751 8.62042L9.57276 8.85567C9.51592 8.99777 9.48434 9.15408 9.48434 9.31671C9.48434 9.63091 9.59803 9.91669 9.78749 10.1377C9.70381 10.283 9.72434 10.4709 9.84749 10.5956C9.99591 10.744 10.2359 10.744 10.3827 10.5956L12.0264 8.95356C12.1748 8.80515 12.1748 8.56515 12.0264 8.41832C11.9016 8.29358 11.7138 8.27464 11.5685 8.35832C11.3475 8.16727 11.0617 8.05359 10.7475 8.05359C10.5848 8.05359 10.4285 8.08517 10.2864 8.14043L10.0512 7.90517C9.82223 7.67623 9.51119 7.54834 9.18909 7.54834C8.5149 7.54834 7.9686 8.09464 7.9686 8.76883V11.5903C7.68913 11.5903 7.46335 11.8161 7.46335 12.0956C7.46335 12.375 7.68913 12.6008 7.9686 12.6008H15.0421C15.3215 12.6008 15.5473 12.375 15.5473 12.0956C15.5473 11.8161 15.3215 11.5903 15.0421 11.5903H8.9791V8.76883ZM7.9686 13.1061V13.3587C7.9686 13.8071 8.16438 14.2113 8.47385 14.4892V15.1271C8.47385 15.4065 8.69963 15.6323 8.9791 15.6323C9.25856 15.6323 9.48434 15.4065 9.48434 15.1271V14.8745H13.5263V15.1271C13.5263 15.4065 13.7521 15.6323 14.0316 15.6323C14.3111 15.6323 14.5368 15.4065 14.5368 15.1271V14.4892C14.8463 14.2113 15.0421 13.8087 15.0421 13.3587V13.1061H7.9686Z" fill="#FF5017"/>
</svg>
