<svg width="22" height="21" viewBox="0 0 22 21" fill="none" xmlns="http://www.w3.org/2000/svg">
<path d="M17.4781 13.2015C17.2055 13.4657 17.0803 13.8478 17.1424 14.2225L18.0781 19.4011C18.157 19.84 17.9718 20.2842 17.6044 20.5379C17.2445 20.801 16.7655 20.8326 16.3729 20.6221L11.7111 18.1907C11.549 18.1044 11.3691 18.058 11.1849 18.0528H10.8996C10.8007 18.0675 10.7038 18.0991 10.6154 18.1475L5.95258 20.5905C5.72207 20.7063 5.46103 20.7473 5.20526 20.7063C4.58215 20.5884 4.16638 19.9948 4.26848 19.3685L5.20526 14.1899C5.26736 13.812 5.14211 13.4278 4.86949 13.1594L1.0687 9.47546C0.750823 9.16706 0.640304 8.70393 0.785557 8.28607C0.9266 7.86925 1.28658 7.56506 1.72128 7.49665L6.95251 6.73775C7.35038 6.6967 7.69983 6.45461 7.87877 6.09674L10.1839 1.37074C10.2386 1.26548 10.3091 1.16865 10.3944 1.08655L10.4891 1.01287C10.5386 0.958135 10.5954 0.912875 10.6586 0.876036L10.7733 0.833933L10.9522 0.760254H11.3954C11.7911 0.801304 12.1395 1.03813 12.3216 1.39179L14.6573 6.09674C14.8257 6.44093 15.153 6.67986 15.5309 6.73775L20.7621 7.49665C21.2042 7.5598 21.5736 7.86504 21.7199 8.28607C21.8578 8.70814 21.7389 9.17127 21.4147 9.47546L17.4781 13.2015Z" fill="#FF5017"/>
</svg>
