<svg width="20" height="21" viewBox="0 0 20 21" fill="none" xmlns="http://www.w3.org/2000/svg">
<path d="M7.31678 0.124512C7.79406 0.212901 8.28539 0.271827 8.75565 0.397045C9.71021 0.640116 10.5595 1.12626 11.3035 1.78181C12.4125 2.75409 13.1705 3.97681 13.5425 5.44996C13.9426 7.02624 13.8443 8.57305 13.2407 10.0683C13.0161 10.6207 12.7073 11.1363 12.4265 11.6888C12.5669 11.8435 12.7494 12.0276 13.0021 12.0865C13.1144 12.1086 13.2547 12.1013 13.353 12.0423C13.5144 11.9466 13.6688 11.9392 13.8092 12.0276C13.9917 12.1381 14.1812 12.2633 14.3286 12.4253C15.8166 14.0237 17.2906 15.6295 18.7716 17.2352C19.1927 17.6919 19.1857 18.2001 18.7575 18.6421C18.3715 19.0398 17.9854 19.4302 17.5924 19.8206C17.1853 20.2331 16.687 20.2257 16.2939 19.7985C14.7919 18.1706 13.2898 16.5502 11.7948 14.915C11.6544 14.7677 11.5562 14.5688 11.4719 14.3773C11.4018 14.23 11.4228 14.0679 11.5141 13.9132C11.5702 13.8175 11.5983 13.6628 11.5632 13.567C11.479 13.3387 11.3526 13.1325 11.2684 12.963C10.7209 13.2871 10.2296 13.6186 9.70319 13.8764C8.63633 14.3994 7.50629 14.5762 6.33414 14.473C4.95143 14.3478 3.72313 13.8248 2.64924 12.9262C1.68766 12.116 0.978754 11.0995 0.536566 9.89152C0.0733213 8.62461 -0.0319616 7.3135 0.20668 5.9803C0.431283 4.73548 0.936641 3.62325 1.72977 2.6657C2.58607 1.6124 3.62486 0.861089 4.88124 0.470703C5.35852 0.323387 5.86388 0.257096 6.3552 0.161341C6.41135 0.146609 6.47452 0.131877 6.53067 0.124512C6.79037 0.124512 7.05007 0.124512 7.31678 0.124512ZM6.93776 2.35634C4.34079 2.34897 2.22109 4.5808 2.21407 7.30614C2.21407 10.0315 4.32675 12.2559 6.93075 12.2633C9.52772 12.2707 11.6474 10.0462 11.6544 7.3135C11.6615 4.59553 9.54176 2.36371 6.93776 2.35634Z" fill="white"/>
</svg>
