<svg width="22" height="21" viewBox="0 0 22 21" fill="none" xmlns="http://www.w3.org/2000/svg">
<path opacity="0.4" d="M12.2765 1.40616L14.6202 6.11593C14.7929 6.45715 15.1224 6.69412 15.5025 6.74677L20.7668 7.51348C21.0742 7.55666 21.3532 7.71885 21.5417 7.96634C21.728 8.21068 21.8081 8.52031 21.7628 8.82467C21.7259 9.07743 21.607 9.31124 21.4248 9.49027L17.6103 13.1879C17.3313 13.446 17.205 13.8283 17.2723 14.2021L18.2115 19.4006C18.3115 20.0283 17.8956 20.6201 17.2723 20.7392C17.0154 20.7802 16.7522 20.737 16.5206 20.6191L11.8249 18.1726C11.4764 17.9967 11.0647 17.9967 10.7162 18.1726L6.02046 20.6191C5.44349 20.9256 4.7286 20.717 4.40748 20.1483C4.28851 19.9219 4.24639 19.6639 4.28535 19.4122L5.2245 14.2127C5.29188 13.8399 5.16448 13.4554 4.88653 13.1974L1.07203 9.50186C0.618244 9.06374 0.604557 8.34232 1.04149 7.88841C1.05097 7.87893 1.0615 7.8684 1.07203 7.85787C1.25312 7.67356 1.49106 7.55666 1.74796 7.52612L7.01225 6.75836C7.39128 6.70465 7.72082 6.46979 7.89454 6.12646L10.154 1.40616C10.3551 1.00175 10.772 0.75004 11.2247 0.760572H11.3658C11.7585 0.807965 12.1007 1.05125 12.2765 1.40616Z" fill="#FF5017"/>
<path d="M11.2404 18.0414C11.0365 18.0478 10.8379 18.1025 10.6592 18.2005L5.98645 20.6415C5.4147 20.9143 4.7305 20.7026 4.40994 20.1558C4.29117 19.9325 4.24808 19.6765 4.28802 19.4257L5.22132 14.2373C5.28438 13.8601 5.15826 13.4766 4.88394 13.2112L1.06773 9.51655C0.614747 9.07302 0.606339 8.34506 1.04986 7.891C1.05617 7.88468 1.06143 7.87941 1.06773 7.87415C1.2485 7.69505 1.48183 7.57706 1.73302 7.54019L7.00172 6.76482C7.38324 6.71635 7.71431 6.47826 7.88247 6.13272L10.1726 1.35301C10.3902 0.967431 10.8074 0.737769 11.2488 0.761999C11.2404 1.07489 11.2404 17.8286 11.2404 18.0414Z" fill="#FF5017"/>
</svg>
