<svg width="30" height="26" viewBox="0 0 30 26" fill="none" xmlns="http://www.w3.org/2000/svg">
<path d="M14.8808 24.4878C13.1979 24.7688 11.4748 24.6667 9.8349 24.1886C8.19496 23.7105 6.67828 22.8681 5.39387 21.7211C4.10943 20.574 3.0891 19.1507 2.40668 17.5529C1.72425 15.955 1.39684 14.2226 1.4482 12.48C1.49956 10.7374 1.92839 9.02842 2.70352 7.4756C3.47863 5.92281 4.58064 4.56498 5.9299 3.49899C7.27912 2.43303 8.84228 1.68517 10.5072 1.30842C12.172 0.931672 13.898 0.935209 15.5614 1.31883" stroke="#F8FAFA"/>
<path d="M29.3958 13.5433C29.5911 13.348 29.5911 13.0314 29.3958 12.8361L26.2138 9.65416C26.0186 9.4589 25.702 9.4589 25.5067 9.65416C25.3114 9.84943 25.3114 10.166 25.5067 10.3613L28.3351 13.1897L25.5067 16.0181C25.3114 16.2134 25.3114 16.53 25.5067 16.7252C25.702 16.9205 26.0186 16.9205 26.2138 16.7252L29.3958 13.5433ZM13.0611 13.6897L29.0422 13.6897L29.0422 12.6897L13.0611 12.6897L13.0611 13.6897Z" fill="#F8FAFA"/>
</svg>
