<svg width="51" height="51" viewBox="0 0 51 51" fill="none" xmlns="http://www.w3.org/2000/svg">
<circle cx="25.1712" cy="25.0488" r="25" fill="#F8FAFA"/>
<path d="M25.1718 22.4449C23.7382 22.4449 22.5682 23.6148 22.5682 25.0484C22.5682 26.482 23.7382 27.6519 25.1718 27.6519C26.6053 27.6519 27.7753 26.482 27.7753 25.0484C27.7753 23.6148 26.6053 22.4449 25.1718 22.4449ZM32.9803 25.0484C32.9803 23.9703 32.9901 22.9019 32.9296 21.8258C32.869 20.5758 32.5839 19.4664 31.6698 18.5523C30.7538 17.6363 29.6464 17.3531 28.3964 17.2926C27.3182 17.232 26.2499 17.2418 25.1737 17.2418C24.0956 17.2418 23.0272 17.232 21.9511 17.2926C20.7011 17.3531 19.5917 17.6383 18.6776 18.5523C17.7616 19.4684 17.4784 20.5758 17.4178 21.8258C17.3573 22.9039 17.3671 23.9723 17.3671 25.0484C17.3671 26.1246 17.3573 27.1949 17.4178 28.2711C17.4784 29.5211 17.7636 30.6305 18.6776 31.5445C19.5936 32.4605 20.7011 32.7437 21.9511 32.8043C23.0292 32.8648 24.0975 32.8551 25.1737 32.8551C26.2518 32.8551 27.3202 32.8648 28.3964 32.8043C29.6464 32.7437 30.7557 32.4586 31.6698 31.5445C32.5858 30.6285 32.869 29.5211 32.9296 28.2711C32.9921 27.1949 32.9803 26.1266 32.9803 25.0484ZM25.1718 29.0543C22.955 29.0543 21.1659 27.2652 21.1659 25.0484C21.1659 22.8316 22.955 21.0426 25.1718 21.0426C27.3885 21.0426 29.1776 22.8316 29.1776 25.0484C29.1776 27.2652 27.3885 29.0543 25.1718 29.0543ZM29.3417 21.8141C28.8241 21.8141 28.4061 21.3961 28.4061 20.8785C28.4061 20.3609 28.8241 19.943 29.3417 19.943C29.8593 19.943 30.2772 20.3609 30.2772 20.8785C30.2774 21.0014 30.2533 21.1231 30.2063 21.2367C30.1594 21.3503 30.0905 21.4535 30.0035 21.5404C29.9166 21.6273 29.8135 21.6962 29.6999 21.7432C29.5863 21.7901 29.4646 21.8142 29.3417 21.8141Z" fill="#FF5017"/>
</svg>
