<svg width="51" height="51" viewBox="0 0 51 51" fill="none" xmlns="http://www.w3.org/2000/svg">
<circle cx="25.4976" cy="25.0488" r="25" fill="#F8FAFA"/>
<path d="M33.6779 26.8141V32.8564H30.1705V27.2191C30.1705 25.8036 29.6641 24.837 28.3942 24.837C27.4251 24.837 26.8494 25.4877 26.5951 26.1179C26.5028 26.3431 26.479 26.6558 26.479 26.9717V32.8562H22.9713C22.9713 32.8562 23.0184 23.3083 22.9713 22.32H26.4792V23.8131C26.4722 23.8248 26.4622 23.8363 26.456 23.8476H26.4792V23.8131C26.9454 23.0967 27.7766 22.0726 29.6403 22.0726C31.9479 22.0726 33.6779 23.5785 33.6779 26.8141ZM19.302 17.2412C18.1022 17.2412 17.3172 18.0279 17.3172 19.0614C17.3172 20.073 18.0794 20.8823 19.256 20.8823H19.2787C20.5021 20.8823 21.2628 20.073 21.2628 19.0614C21.2395 18.0279 20.5021 17.2412 19.302 17.2412ZM17.5257 32.8564H21.0321V22.32H17.5257V32.8564Z" fill="#FF5017"/>
</svg>
