<svg width="51" height="51" viewBox="0 0 51 51" fill="none" xmlns="http://www.w3.org/2000/svg">
<circle cx="25.8344" cy="25.0488" r="25" fill="#F8FAFA"/>
<path d="M35.5373 19.1644C34.8415 19.4728 34.094 19.6811 33.3081 19.7753C34.119 19.2901 34.7256 18.5265 35.0148 17.6269C34.253 18.0794 33.4193 18.3979 32.5498 18.5686C31.9651 17.9443 31.1907 17.5305 30.3467 17.3915C29.5028 17.2525 28.6365 17.3959 27.8825 17.7997C27.1284 18.2034 26.5288 18.8447 26.1766 19.6242C25.8244 20.4036 25.7394 21.2776 25.9348 22.1103C24.3912 22.0328 22.8812 21.6316 21.5027 20.9327C20.1241 20.2338 18.908 19.2529 17.9331 18.0536C17.5998 18.6286 17.4081 19.2953 17.4081 20.0053C17.4078 20.6444 17.5652 21.2738 17.8664 21.8376C18.1676 22.4013 18.6033 22.882 19.1348 23.2369C18.5184 23.2173 17.9155 23.0508 17.3765 22.7511V22.8011C17.3764 23.6976 17.6865 24.5664 18.2541 25.2603C18.8217 25.9541 19.6119 26.4302 20.4906 26.6078C19.9188 26.7625 19.3192 26.7853 18.7373 26.6744C18.9852 27.4458 19.4681 28.1203 20.1184 28.6035C20.7687 29.0868 21.5539 29.3546 22.364 29.3694C20.9888 30.449 19.2905 31.0345 17.5423 31.0319C17.2326 31.032 16.9232 31.0139 16.6156 30.9778C18.3902 32.1188 20.4559 32.7243 22.5656 32.7219C29.7073 32.7219 33.6115 26.8069 33.6115 21.6769C33.6115 21.5103 33.6073 21.3419 33.5998 21.1753C34.3592 20.6261 35.0147 19.946 35.5356 19.1669L35.5373 19.1644Z" fill="#FF5017"/>
</svg>
