<svg width="21" height="20" viewBox="0 0 21 20" fill="none" xmlns="http://www.w3.org/2000/svg">
<path d="M20.0473 9.08169C20.6482 9.68258 20.6482 10.6584 20.0473 11.2593L12.3559 18.9507C11.755 19.5516 10.7792 19.5516 10.1783 18.9507C9.57742 18.3498 9.57742 17.374 10.1783 16.7731L16.7833 10.1681L10.1831 3.56313C9.58223 2.96224 9.58223 1.98639 10.1831 1.3855C10.784 0.784612 11.7599 0.784612 12.3607 1.3855L20.0521 9.07689L20.0473 9.08169ZM3.12627 1.39031L10.8177 9.08169C11.4185 9.68258 11.4185 10.6584 10.8177 11.2593L3.12628 18.9507C2.52539 19.5516 1.54954 19.5516 0.948653 18.9507C0.347763 18.3498 0.347763 17.374 0.948653 16.7731L7.55363 10.1681L0.953459 3.56313C0.35257 2.96224 0.35257 1.98639 0.953459 1.3855C1.55435 0.784613 2.53019 0.784613 3.13108 1.3855L3.12627 1.39031Z" fill="#FF5017"/>
</svg>
