<svg width="31" height="32" viewBox="0 0 31 32" fill="none" xmlns="http://www.w3.org/2000/svg">
<path d="M4.38769 0.233398C1.96754 0.233398 -0.00012207 2.21237 -0.00012207 4.64643V26.7116C-0.00012207 29.1457 1.96754 31.1246 4.38769 31.1246H26.3268C28.7469 31.1246 30.7146 29.1457 30.7146 26.7116V4.64643C30.7146 2.21237 28.7469 0.233398 26.3268 0.233398H4.38769ZM23.1045 12.4382L14.3288 21.2643C13.6844 21.9124 12.6423 21.9124 12.0047 21.2643L7.61685 16.8512C6.97239 16.2031 6.97239 15.155 7.61685 14.5137C8.26131 13.8724 9.30342 13.8655 9.94102 14.5137L13.1633 17.7545L20.7734 10.0938C21.4179 9.44561 22.46 9.44561 23.0976 10.0938C23.7352 10.7419 23.7421 11.79 23.0976 12.4313L23.1045 12.4382Z" fill="#010F58"/>
</svg>
