<svg width="28" height="28" viewBox="0 0 28 28" fill="none" xmlns="http://www.w3.org/2000/svg">
<path d="M15.4827 9.2924H12.5175V12.2576H15.4827V9.2924ZM21.4132 9.2924H18.448V12.2576H21.4132V9.2924ZM25.861 18.9294C24.0078 18.9294 22.2286 18.6329 20.5681 18.0843C20.0492 17.9212 19.471 18.0398 19.0558 18.4401L15.7941 21.7019C11.5983 19.5669 8.15863 16.1421 6.02367 11.9463L9.28542 8.6697C9.70055 8.2694 9.81916 7.69118 9.65607 7.17226C9.1075 5.51174 8.81098 3.7326 8.81098 1.87934C8.81098 1.0639 8.14381 0.396729 7.32837 0.396729H2.13923C1.32379 0.396729 0.656616 1.0639 0.656616 1.87934C0.656616 15.8011 11.9393 27.0837 25.861 27.0837C26.6765 27.0837 27.3436 26.4166 27.3436 25.6011V20.412C27.3436 19.5966 26.6765 18.9294 25.861 18.9294ZM24.3784 9.2924V12.2576H27.3436V9.2924H24.3784Z" fill="#F8FAFA"/>
</svg>
