<svg width="21" height="19" viewBox="0 0 21 19" fill="none" xmlns="http://www.w3.org/2000/svg">
<path d="M20.0473 8.54849C20.6482 9.14938 20.6482 10.1252 20.0473 10.7261L12.3559 18.4175C11.755 19.0184 10.7792 19.0184 10.1783 18.4175C9.57742 17.8166 9.57742 16.8408 10.1783 16.2399L16.7833 9.6349L10.1831 3.02992C9.58223 2.42903 9.58223 1.45319 10.1831 0.852298C10.784 0.251409 11.7599 0.251409 12.3607 0.852298L20.0521 8.54368L20.0473 8.54849ZM3.12627 0.857107L10.8177 8.54849C11.4185 9.14938 11.4185 10.1252 10.8177 10.7261L3.12628 18.4175C2.52539 19.0184 1.54954 19.0184 0.948653 18.4175C0.347763 17.8166 0.347763 16.8408 0.948653 16.2399L7.55363 9.6349L0.953459 3.02992C0.35257 2.42903 0.35257 1.45319 0.953459 0.852299C1.55435 0.251409 2.53019 0.251409 3.13108 0.852299L3.12627 0.857107Z" fill="#F8FAFA"/>
</svg>
