<svg width="21" height="20" viewBox="0 0 21 20" fill="none" xmlns="http://www.w3.org/2000/svg">
<path d="M20.0473 8.87173C20.6482 9.47262 20.6482 10.4485 20.0473 11.0494L12.3559 18.7407C11.755 19.3416 10.7792 19.3416 10.1783 18.7407C9.57742 18.1398 9.57742 17.164 10.1783 16.5631L16.7833 9.95814L10.1831 3.35316C9.58223 2.75228 9.58223 1.77643 10.1831 1.17554C10.784 0.574651 11.7599 0.574651 12.3607 1.17554L20.0521 8.86693L20.0473 8.87173ZM3.12627 1.18035L10.8177 8.87173C11.4185 9.47262 11.4185 10.4485 10.8177 11.0494L3.12628 18.7407C2.52539 19.3416 1.54954 19.3416 0.948653 18.7407C0.347763 18.1398 0.347763 17.164 0.948653 16.5631L7.55363 9.95814L0.953459 3.35316C0.35257 2.75228 0.35257 1.77643 0.953459 1.17554C1.55435 0.574652 2.53019 0.574652 3.13108 1.17554L3.12627 1.18035Z" fill="#F8FAFA"/>
</svg>
