<svg width="274" height="274" viewBox="0 0 274 274" fill="none" xmlns="http://www.w3.org/2000/svg">
<path d="M136.756 273.105L134.837 273.092L134.909 267.787L136.756 267.8C209.003 267.8 267.781 208.972 267.781 136.663C267.781 66.1254 212.666 8.57341 142.297 5.6438L142.52 0.343262C215.729 3.39096 273.082 63.2685 273.082 136.663C273.082 211.897 211.926 273.105 136.756 273.105ZM38.3473 231.083C13.9005 205.566 0.435852 172.036 0.435852 136.668C0.435852 98.9597 16.2512 62.5781 43.8203 36.8521L47.4326 40.7309C20.9345 65.4577 5.73638 100.427 5.73638 136.672C5.73638 170.665 18.6746 202.895 42.1729 227.417L38.3473 231.083Z" fill="#F8FAFA"/>
</svg>
