<svg width="315" height="312" viewBox="0 0 315 312" fill="none" xmlns="http://www.w3.org/2000/svg">
<path d="M191.148 311.102L190.867 309.807C261.806 294.41 313.296 230.426 313.296 157.668C313.301 148.329 312.465 138.964 310.818 129.839L312.125 129.607C313.782 138.814 314.626 148.257 314.621 157.672C314.621 193.74 302.1 228.968 279.36 256.861C256.933 284.358 225.61 303.621 191.148 311.102ZM87.5835 298.121C34.1108 271.304 0.891785 217.486 0.891785 157.668C0.891785 144.55 2.51189 131.519 5.70219 118.933L6.98648 119.26C3.82341 131.742 2.21692 144.659 2.21692 157.668C2.21692 216.982 35.1546 270.346 88.178 296.935L87.5835 298.121ZM259.487 39.902C231.26 15.4523 195.128 1.9897 157.756 1.9897C123.793 1.99424 91.5226 12.7543 64.4436 33.1071L63.6449 32.0443C90.9599 11.5234 123.503 0.672511 157.756 0.667969C195.45 0.667969 231.887 14.2441 260.354 38.8982L259.487 39.902Z" fill="#F8FAFA"/>
</svg>
